<!-- Generator: Adobe Illustrator 21.1.0, SVG Export Plug-In  -->
<svg version="1.1"
	 xmlns="http://www.w3.org/2000/svg" xmlns:xlink="http://www.w3.org/1999/xlink" xmlns:a="http://ns.adobe.com/AdobeSVGViewerExtensions/3.0/"
	 x="0px" y="0px" width="180px" height="17px" viewBox="0 0 180 17" style="enable-background:new 0 0 180 17;"
	 xml:space="preserve">
<style type="text/css">
	.st0{fill:#2E67B0;}
	.st1{fill:#EC6725;}
</style>
<defs>
</defs>
<path class="st0" d="M5.8,4.4c-2.1,0-3.4,0.4-4.8,1L1.9,8C3,7.6,4,7.4,5.3,7.4c1.7,0,2.6,0.8,2.6,2.2v0.2c-0.9-0.3-1.8-0.5-3-0.5
	C2,9.3,0,10.5,0,13.2v0C0,15.7,1.9,17,4.2,17c1.7,0,2.9-0.6,3.7-1.5v1.3h3.4V9.7c0-1.6-0.4-3-1.3-3.9C9.1,4.9,7.7,4.4,5.8,4.4z
	 M8,12.4c0,1.2-1.1,2.1-2.7,2.1c-1.1,0-1.9-0.5-1.9-1.5v0c0-1.1,0.9-1.7,2.4-1.7c0.8,0,1.6,0.2,2.2,0.5V12.4z M19.3,9.4
	c-1.3-0.5-2.5-0.8-2.5-1.5v0c0-0.5,0.4-0.8,1.3-0.8c0.9,0,2.1,0.4,3.3,1.1l1.3-2.4c-1.3-0.9-3-1.4-4.6-1.4c-2.5,0-4.5,1.4-4.5,3.9v0
	c0,2.4,1.9,3.2,3.7,3.7c1.4,0.4,2.5,0.7,2.5,1.4v0c0,0.5-0.5,0.9-1.5,0.9c-1.1,0-2.5-0.5-3.9-1.5l-1.5,2.3c1.6,1.3,3.5,1.8,5.3,1.8
	C21,17,23,15.7,23,13v0C23,10.8,21,10,19.3,9.4z M37,4.6h-4.2L28.8,9V0.2h-3.5v16.6h3.5V13l1.2-1.3l3.1,5h4l-4.8-7.4L37,4.6z
	 M53.2,4.3c-1.7,0-3,0.7-4,1.9c-0.6-1.2-1.9-1.9-3.5-1.9c-1.8,0-2.8,0.9-3.6,2V4.6h-3.5v12.2h3.5V10c0-1.6,0.8-2.5,2.1-2.5
	s2,0.8,2,2.5v6.8h3.5V10c0-1.6,0.8-2.5,2.1-2.5c1.3,0,2,0.8,2,2.5v6.8h3.5V8.8C57.4,5.9,55.8,4.3,53.2,4.3z M65.7,4.3
	c-3.6,0-6.1,2.9-6.1,6.3v0c0,3.7,2.7,6.3,6.4,6.3c2.2,0,3.9-0.9,5-2.3l-2-1.7c-1,0.9-1.8,1.2-3,1.2c-1.6,0-2.7-0.8-3-2.4h8.5
	c0-0.3,0-0.6,0-0.9C71.7,7.5,69.8,4.3,65.7,4.3z M63,9.7c0.3-1.6,1.2-2.6,2.7-2.6c1.5,0,2.4,1,2.6,2.6H63z M127.7,16.7h3.7v-3.6
	h-3.7V16.7z M139.9,14c-1.9,0-3.1-1.5-3.1-3.4v0c0-1.8,1.2-3.3,3-3.3c1.2,0,2,0.5,2.8,1.3l2.1-2.3c-1.1-1.3-2.6-2-4.9-2
	c-3.8,0-6.4,2.9-6.4,6.3v0c0,3.5,2.7,6.3,6.4,6.3c2.5,0,3.8-0.9,5-2.2l-2-2C141.9,13.5,141.1,14,139.9,14z M152.4,4.3
	c-3.8,0-6.7,2.8-6.7,6.3v0c0,3.5,2.8,6.3,6.6,6.3c3.8,0,6.7-2.8,6.7-6.3v0C159,7.1,156.2,4.3,152.4,4.3z M155.6,10.7
	c0,1.8-1.2,3.3-3.2,3.3c-1.9,0-3.2-1.6-3.2-3.4v0c0-1.8,1.2-3.3,3.2-3.3C154.3,7.3,155.6,8.9,155.6,10.7L155.6,10.7z M175.9,4.3
	c-1.7,0-3,0.7-4,1.9c-0.6-1.2-1.9-1.9-3.5-1.9c-1.8,0-2.8,0.9-3.6,2V4.6h-3.5v12.2h3.5V10c0-1.6,0.8-2.5,2.1-2.5c1.3,0,2,0.8,2,2.5
	v6.8h3.5V10c0-1.6,0.8-2.5,2.1-2.5c1.3,0,2,0.8,2,2.5v6.8h3.5V8.8C180,5.9,178.5,4.3,175.9,4.3z"/>
<g>
	<path class="st1" d="M79.9,4.3c-3.8,0-6.7,2.8-6.7,6.3v0c0,3.5,2.8,6.3,6.6,6.3c3.8,0,6.7-2.8,6.7-6.3v0
		C86.5,7.1,83.7,4.3,79.9,4.3z M83.1,10.7c0,1.8-1.2,3.3-3.2,3.3c-1.9,0-3.2-1.6-3.2-3.4v0c0-1.8,1.2-3.3,3.2-3.3
		C81.8,7.3,83.1,8.9,83.1,10.7L83.1,10.7z"/>
	<path class="st1" d="M99.1,1c-0.6,0.6-1,1.6-1,3v0.8h-1.4v2.8h1.4v9.2h3.5V7.5h2.8V4.7h-2.8V4.2c0-0.9,0.5-1.3,1.3-1.3
		c0.6,0,1.1,0.1,1.6,0.3V0.3C103.7,0.1,103,0,101.9,0C100.7,0,99.7,0.3,99.1,1z"/>
	<path class="st1" d="M90.3,1c-0.6,0.6-1,1.6-1,3v0.8h-1.4v2.8h1.4v9.2h3.5V7.5h2.8V4.7h-2.8V4.2c0-0.9,0.5-1.3,1.3-1.3
		c0.6,0,1.1,0.1,1.6,0.3V0.3C95,0.1,94.2,0,93.1,0C91.9,0,91,0.3,90.3,1z"/>
	<path class="st1" d="M117.5,10.9c0-3.5-1.9-6.6-6-6.6c-3.6,0-6.1,2.9-6.1,6.3v0c0,3.7,2.7,6.3,6.4,6.3c2.2,0,3.9-0.9,5-2.3l-2-1.7
		c-1,0.9-1.8,1.2-3,1.2c-1.6,0-2.7-0.8-3-2.4h8.5C117.5,11.5,117.5,11.2,117.5,10.9z M108.9,9.7c0.3-1.6,1.2-2.6,2.7-2.6
		c1.5,0,2.4,1,2.6,2.6H108.9z"/>
	<path class="st1" d="M123.3,7V4.6h-3.5v12.2h3.5v-4.5c0-2.9,1.4-4.3,3.7-4.3h0.2V4.3C125.1,4.2,124,5.3,123.3,7z"/>
</g>
</svg>
